<svg xmlns="http://www.w3.org/2000/svg" xml:space="preserve" width="40px" height="40px" style="shape-rendering:geometricPrecision; text-rendering:geometricPrecision; image-rendering:optimizeQuality; fill-rule:evenodd; clip-rule:evenodd"
viewBox="0 0 6.82666 6.82666">
 <defs>
  <style type="text/css">
   <![CDATA[
    .fil1 {fill:none}
    .fil2 {fill:#949494}
    .fil4 {fill:#9DD5C0}
    .fil5 {fill:#EBE5DF}
    .fil3 {fill:#FFD3B3}
    .fil0 {fill:#333333;fill-rule:nonzero}
   ]]>
  </style>
 </defs>
 <g id="Layer_x0020_1">
  <metadata id="CorelCorpID_0Corel-Layer"/>
  <path class="fil0" d="M2.67471 3.55081l0.702504 0.906193 0.619268 -0.920902c0.0158228,-0.00211024 0.0292047,-0.00417323 0.0414724,-0.00606299 0.0630748,-0.0097126 0.0856535,-0.013189 0.155469,0.0475236 0.132185,0.114961 0.239602,0.257606 0.313154,0.418906 0.0705669,0.154736 0.109882,0.32722 0.109882,0.509472l0 0.279819c-0.169406,0.137012 -0.361528,0.246768 -0.569697,0.322559 -0.211949,0.0771693 -0.441177,0.119283 -0.680689,0.119283l0 0.000314961c-0.239016,-1.1811e-005 -0.46826,-0.0422283 -0.68076,-0.119579 -0.208327,-0.0758307 -0.400575,-0.185673 -0.570161,-0.322819l-1.5748e-005 -0.279579 0.000314961 0c0,-0.159772 0.0304134,-0.312319 0.0857362,-0.452189 0.0575906,-0.145598 0.141925,-0.277398 0.246846,-0.389276l0.00956299 -0.0101969c0.0594291,-0.0634055 0.0886535,-0.0945827 0.110524,-0.103276 0.0173386,-0.00688583 0.0485551,-0.00509843 0.106591,-0.000192913zm0.692488 0.590224l-0.565287 -0.699091 -0.0193976 -0.0434961 -0.0472795 -0.00399606c-0.00617717,-0.000519685 -0.0099252,-0.000866142 -0.0248031,-0.00214961l-0.000311024 0c-0.0963819,-0.00831102 -0.145394,-0.0125354 -0.20113,0.00961417 -0.0558465,0.0221969 -0.0929488,0.0617795 -0.168398,0.14228l-0.00955906 0.0101969c-0.119102,0.127 -0.214622,0.276063 -0.279559,0.440232 -0.0626299,0.15835 -0.097063,0.330854 -0.097063,0.511315l0.000314961 0 1.5748e-005 0.31765 3.93701e-006 0.0376102 0.0286181 0.0240354c0.190268,0.159756 0.408799,0.287291 0.64722,0.374075 0.229268,0.0834567 0.476929,0.129 0.735488,0.129016l0 0.000314961c0.257882,0 0.505583,-0.0456732 0.735417,-0.12935 0.238409,-0.0867992 0.456937,-0.214346 0.647071,-0.374087l0.028937 -0.024315 0 -0.0373307 0 -0.317618c0,-0.205031 -0.0447205,-0.400146 -0.124984,-0.57615 -0.0831732,-0.182398 -0.204618,-0.343681 -0.354039,-0.473634 -0.126087,-0.109654 -0.167827,-0.10322 -0.284425,-0.0852677 -0.0247402,0.00381102 -0.0537362,0.00827953 -0.0826654,0.0111339l-0.0490354 0.00483858 -0.0179567 0.0461142 -0.497193 0.708059z"/>
  <path class="fil0" d="M1.29684 3.23371l0.432551 0.557969 0.381299 -0.567028c0.00974409,-0.00129921 0.0179843,-0.00256693 0.0255394,-0.00373228 0.0388346,-0.00598031 0.0527402,-0.00811811 0.0957244,0.0292638 0.0718858,0.0625157 0.131874,0.138339 0.17611,0.223626 0.0286142,-0.028185 0.0523661,-0.0477126 0.0790157,-0.0617913 -0.0490709,-0.0898307 -0.113776,-0.169913 -0.190445,-0.236591 -0.0776378,-0.0675118 -0.103335,-0.0635551 -0.175126,-0.0525 -0.0152323,0.00235039 -0.0330866,0.00509843 -0.0508976,0.00685433l-0.0301969 0.00298031 -0.0110551 0.0283937 -0.306134 0.435972 -0.348063 -0.430449 -0.0119409 -0.0267835 -0.0291142 -0.00246063c-0.00380315,-0.000318898 -0.00611024,-0.000531496 -0.0152677,-0.00132283l-0.000192913 0c-0.0593465,-0.00511417 -0.0895276,-0.00772047 -0.123843,0.00592126 -0.0343858,0.0136654 -0.0572323,0.0380394 -0.103689,0.0876063l-0.00588583 0.00627559c-0.0733346,0.0781969 -0.13215,0.16998 -0.17213,0.271059 -0.038563,0.0975039 -0.0597638,0.20372 -0.0597638,0.314831l0.000192913 0 1.1811e-005 0.195591 0 0.0231575 0.017622 0.0147992c0.11715,0.0983622 0.251709,0.17689 0.398508,0.230327 0.141169,0.0513858 0.293661,0.0794291 0.452862,0.079437l0 0.000192913c0.0823425,0 0.163,-0.00756299 0.241311,-0.0220315 0.00409843,-0.0351299 0.00950394,-0.0698661 0.0161732,-0.104154 -0.082937,0.0177047 -0.169071,0.0270315 -0.257484,0.0270315l0 0.000192913c-0.147169,-7.87402e-006 -0.288319,-0.0260039 -0.419161,-0.073626 -0.128272,-0.0466929 -0.246646,-0.114327 -0.351067,-0.198768l-7.87402e-006 -0.17215 0.000192913 0c0,-0.098374 0.0187283,-0.192299 0.0527913,-0.278421 0.0354606,-0.0896496 0.0873858,-0.170803 0.151992,-0.239685l0.00588583 -0.00627953c0.0365906,-0.0390394 0.0545866,-0.0582362 0.0680512,-0.0635906 0.0106732,-0.00424016 0.0299016,-0.0031378 0.0656299,-0.00011811z"/>
  <path class="fil0" d="M4.0625 4.87822c0.0442953,-0.00347244 0.0773858,-0.0422008 0.0739134,-0.0864961 -0.00347638,-0.0442953 -0.0422008,-0.0773858 -0.0865,-0.0739134 -0.0434961,0.0034685 -0.0632559,-0.0104173 -0.0710906,-0.0303937 -0.0141575,-0.0361024 -0.0114882,-0.0919173 -0.00801969,-0.13722 0.000452756,-0.00594488 0.00347638,-0.00776378 0.00966142,-0.0293268 0.0304016,-0.105945 0.104654,-0.364673 0.108437,-0.499606 0.000606299,-0.0217283 0.0154331,-0.0360669 0.034685,-0.0430984 0.012378,-0.00451969 0.0261732,-0.00674016 0.0401417,-0.0067126 0.0138898,1.9685e-005 0.0280354,0.00240157 0.0412126,0.00707874 0.0213346,0.00757087 0.0379961,0.0218937 0.0386535,0.0417402 0.00443307,0.133409 0.0779882,0.392319 0.108374,0.499272 0.00625591,0.0220236 0.00941339,0.0253268 0.0098189,0.0306535 0.00346457,0.0452992 0.00613386,0.101118 -0.00802756,0.13722 -0.00783071,0.0199764 -0.0275906,0.0338622 -0.0710827,0.0303937 -0.0442953,-0.00347244 -0.0830197,0.0296181 -0.0864961,0.0739134 -0.00347244,0.0442953 0.0296181,0.0830236 0.0739134,0.0864961 0.133433,0.0106457 0.200594,-0.0486929 0.233378,-0.132299 0.0264606,-0.0674685 0.0234685,-0.145618 0.0187244,-0.207677 -0.000791339,-0.010374 -0.0065,-0.0304882 -0.0154843,-0.0621063 -0.0289331,-0.101839 -0.0989685,-0.348362 -0.102709,-0.460902 -0.00320866,-0.0967756 -0.0658228,-0.16 -0.145591,-0.188303 -0.029563,-0.0104961 -0.0620787,-0.0158386 -0.094685,-0.0158898 -0.0325197,-5.90551e-005 -0.0650945,0.00528346 -0.0948701,0.0161535 -0.0776654,0.0283583 -0.137591,0.0908268 -0.140366,0.189665 -0.00316535,0.11289 -0.0738346,0.359142 -0.102772,0.459976 -0.00886614,0.0309055 -0.0144921,0.0504724 -0.0153268,0.0614055 -0.00475197,0.0620551 -0.00774409,0.140209 0.0187165,0.207677 0.0327913,0.0836063 0.0999567,0.142945 0.23339,0.132299z"/>
  <path class="fil0" d="M4.05282 3.4562c0,0.0118622 0.0331772,0.435035 0.0332717,0.436252l0.160409 -0.0125866c-9.05512e-005,-0.00118898 -0.0326417,-0.415665 -0.0326417,-0.423665l-0.161039 0z"/>
  <path class="fil0" d="M2.64377 4.42243c0.011126,0 0.0211929,0.00450394 0.0284724,0.0117874 0.00727953,0.00727559 0.0117874,0.0173465 0.0117874,0.0284685 0,0.0111181 -0.00450787,0.0211929 -0.0117874,0.0284724 -0.00727953,0.00727953 -0.0173465,0.0117835 -0.0284724,0.0117835 -0.0111181,0 -0.021185,-0.00450394 -0.0284646,-0.0117835 -0.00727953,-0.00727953 -0.0117835,-0.0173504 -0.0117835,-0.0284724 0,-0.011122 0.00450394,-0.0211929 0.0117835,-0.0284685 0.00727559,-0.00728346 0.0173465,-0.0117874 0.0284646,-0.0117874zm0.142331 -0.102071c-0.0364252,-0.0364331 -0.0867559,-0.0589685 -0.142331,-0.0589685 -0.0555709,0 -0.105898,0.0225354 -0.142323,0.0589685 -0.0364291,0.0364252 -0.0589646,0.086752 -0.0589646,0.142327 0,0.0555748 0.0225354,0.105902 0.0589646,0.142331 0.0364291,0.0364291 0.086752,0.0589646 0.142323,0.0589646 0.0555748,0 0.105906,-0.0225354 0.142331,-0.0589646 0.0364331,-0.0364291 0.0589685,-0.086752 0.0589685,-0.142331 0,-0.0555748 -0.0225354,-0.105902 -0.0589685,-0.142327z"/>
  <path class="fil0" d="M4.09674 2.07142c0.00298819,0.00561811 0.00739764,0.0135354 0.0112441,0.0204449 0.0148819,0.026748 0.0227717,0.0409252 0.0300945,0.0701929 0.0371339,0.0217756 0.0690039,0.0526969 0.0931654,0.0900197 0.0314646,0.0486181 0.0500551,0.107957 0.0500551,0.171476 0,0.0744803 -0.0252953,0.142902 -0.0668228,0.194957 -0.0322677,0.0404449 -0.0743346,0.0711654 -0.122319,0.087752 -0.036815,0.115051 -0.0824843,0.244091 -0.141713,0.365339 -0.0695748,0.142433 -0.15802,0.274654 -0.27324,0.364165 -0.0500039,0.0388504 -0.103677,0.0613189 -0.161606,0.0739961 -0.0535472,0.0117205 -0.10902,0.0145984 -0.168177,0.0145984 -0.0597126,0 -0.115933,-0.00323622 -0.170839,-0.0156614 -0.058252,-0.0131811 -0.112272,-0.036437 -0.162713,-0.0762677 -0.114272,-0.0902087 -0.201795,-0.221776 -0.270547,-0.363031 -0.0587165,-0.12065 -0.104051,-0.248807 -0.140638,-0.363138 -0.0479843,-0.0165866 -0.0900551,-0.0473071 -0.122319,-0.087748 -0.0415236,-0.0520591 -0.0668189,-0.12048 -0.0668189,-0.194961 0,-0.0520787 0.0126417,-0.101559 0.0347165,-0.144736 0.0232835,-0.0455394 0.0571811,-0.0836535 0.0980157,-0.110197 0.00377165,-0.00244882 0.00718898,-0.00459055 0.0119646,-0.00758268l0.000311024 0c0.019752,-0.012378 0.0604843,-0.0379055 0.085752,-0.0570394l0.0968701 0.128327c-0.0256575,0.0194291 -0.0738898,0.0496693 -0.0974764,0.0644488l9.05512e-005 0.000137795 -0.0100709 0.00632283c-0.0174803,0.0113622 -0.0322362,0.0281575 -0.0426654,0.0485551 -0.0104685,0.0204803 -0.0164685,0.0449606 -0.0164685,0.0717638 0,0.037063 0.0119606,0.0703268 0.0315906,0.094937 0.0178425,0.0223622 0.0419094,0.0372756 0.068252,0.0402323l0.0523228 0.00587402 0.0156142 0.0501102c0.036878,0.118354 0.0834961,0.256547 0.145642,0.38424 0.0597323,0.122728 0.133315,0.235098 0.225252,0.307673 0.0295945,0.0233701 0.062437,0.0372717 0.0985512,0.0454449 0.0394685,0.00892913 0.0851614,0.0112559 0.13561,0.0112559 0.0494252,0 0.0945276,-0.00213386 0.134209,-0.0108189 0.0352953,-0.00772047 0.0675433,-0.0210591 0.096815,-0.0437992 0.0931496,-0.0723622 0.167331,-0.184756 0.227315,-0.307555 0.0627008,-0.128358 0.109638,-0.267429 0.14672,-0.386441l0.0156142 -0.0501102 0.0523228 -0.00587402c0.0263425,-0.00295669 0.0504055,-0.0178701 0.068248,-0.0402323 0.0196339,-0.0246142 0.0315945,-0.057874 0.0315945,-0.094937 0,-0.0320669 -0.00877559,-0.0610866 -0.0236299,-0.0840354 -0.0142559,-0.0220157 -0.0338465,-0.0385157 -0.0560984,-0.0464252l-0.0444567 -0.0157992 -0.00806693 -0.0461614c-0.00631496,-0.0361378 -0.00995669,-0.0426732 -0.0203031,-0.0612677 -0.00299213,-0.00537795 -0.00641339,-0.0115197 -0.0125039,-0.0229606l0.141539 -0.0754843z"/>
  <path class="fil0" d="M2.95305 2.10366l0.000437008 -0.000830709c0.0627559,-0.119217 0.176091,-0.175453 0.288996,-0.196465 0.106142,-0.019748 0.214126,-0.00722835 0.273638,0.0123543 0.00987795,0.00324803 0.0192087,0.00698031 0.0277992,0.0110906 0.0266457,0.00814567 0.0383386,0.0117126 0.0425472,0.0129921l7.87402e-006 -2.3622e-005c-0.0041063,-0.00127165 -0.012185,-0.00375591 3.93701e-006,-1.1811e-005 0.268665,0.0824646 0.44835,0.137606 0.544386,0.0951102 -0.0877441,-0.156106 -0.211831,-0.27663 -0.35635,-0.351547 -0.158543,-0.082189 -0.342362,-0.109508 -0.530126,-0.068563 -0.0119173,0.00259843 0.0043189,0.00449606 -0.00531102,0.0134803 -0.0472323,0.0440748 -0.114591,0.106941 -0.206406,0.106941l-0.000629921 -0.000314961c-0.0538268,-0.000507874 -0.084063,-0.0231969 -0.116409,-0.0474646 -0.0160827,-0.0120709 -0.0336181,-0.0252205 -0.0589882,-0.0215315 -0.0780669,0.031252 -0.13613,0.100677 -0.180555,0.181197 -0.0421181,0.0763346 -0.0721063,0.162382 -0.0953937,0.238579 0.0496457,0.0328228 0.148583,0.0266929 0.250429,0.0203819 0.0404803,-0.00251181 0.0813307,-0.00503937 0.121925,-0.00537402zm0.142598 0.0740236c-0.00499606,0.00949213 -0.00954724,0.020311 -0.0135787,0.0325591l-0.0192362 0.0584488 -0.0615984 -0.00340945c-0.0494724,-0.00273622 -0.105445,0.00073622 -0.160673,0.00416142 -0.168315,0.0104331 -0.330965,0.0205157 -0.417622,-0.117815l-0.0191181 -0.0305157 0.00999606 -0.0342756c0.0275,-0.0942756 0.064063,-0.210283 0.121366,-0.314138 0.0620236,-0.112421 0.147772,-0.210547 0.271268,-0.256406l0.0106929 -0.00314567c0.099815,-0.0222835 0.149437,0.0149488 0.194736,0.0489331 0.00940945,0.00706299 0.0182835,0.0137165 0.0207913,0.0151142l0 -4.72441e-005c0.028874,0 0.0688937,-0.0373504 0.0969528,-0.0635354 0.0277362,-0.0258858 0.0496102,-0.0463031 0.0807953,-0.0531024 0.225358,-0.0491457 0.446504,-0.0160866 0.637693,0.0830276 0.19213,0.0995945 0.353327,0.265886 0.457134,0.482244l0.0228465 0.0476181 -0.0347992 0.0398189c-0.147783,0.169106 -0.378118,0.0984094 -0.754,-0.0169685 -0.0598228,-0.0183661 0.0144016,0.00427165 -0.0492677,-0.0152047l-0.0141535 -0.00566142c-0.00162205,-0.000854331 -0.00500787,-0.0021378 -0.0100787,-0.00380315 -0.0409094,-0.0134646 -0.117,-0.0217244 -0.194378,-0.00732677 -0.0706102,0.0131378 -0.140264,0.0459882 -0.175768,0.113429zm0.490819 -0.234882c0.00316142,0.00096063 0.00209449,0.000622047 7.87402e-006,-2.3622e-005l-7.87402e-006 2.3622e-005z"/>
  <path class="fil0" d="M2.17242 2.32281c0.00183858,0.00346063 0.00455512,0.00833465 0.00692126,0.0125906 0.00916535,0.0164685 0.0140236,0.0252008 0.0185315,0.0432205 0.0228622,0.0134055 0.0424882,0.0324449 0.0573622,0.0554252 0.019374,0.029937 0.0308228,0.0664724 0.0308228,0.105583 0,0.0458583 -0.0155748,0.0879882 -0.0411457,0.120039 -0.0198661,0.0249016 -0.0457677,0.0438189 -0.075315,0.0540315 -0.0226693,0.0708425 -0.0507874,0.150291 -0.0872559,0.224949 -0.0428386,0.0877008 -0.0972953,0.16911 -0.16824,0.224228 -0.0307874,0.0239173 -0.0638386,0.0377559 -0.0995079,0.0455591 -0.0329685,0.00721654 -0.067126,0.00898819 -0.103551,0.00898819 -0.0367638,0 -0.0713819,-0.00199213 -0.105189,-0.00964173 -0.0358661,-0.00811417 -0.069126,-0.022437 -0.100185,-0.0469606 -0.0703622,-0.0555433 -0.124252,-0.136551 -0.166583,-0.223528 -0.0361535,-0.0742874 -0.0640669,-0.153197 -0.0865945,-0.223594 -0.0295472,-0.0102126 -0.0554488,-0.029126 -0.075315,-0.0540276 -0.0255669,-0.0320551 -0.0411457,-0.074185 -0.0411457,-0.120043 0,-0.032063 0.0077874,-0.0625315 0.021378,-0.0891181 0.0143386,-0.0280394 0.0352087,-0.0515079 0.0603504,-0.0678504 0.00232283,-0.00150787 0.00442913,-0.00282677 0.00736614,-0.00466929l0.000192913 0c0.0121614,-0.00762205 0.0372402,-0.0233386 0.0527992,-0.0351181l0.0596457 0.0790118c-0.0157992,0.0119646 -0.0454961,0.0305827 -0.0600157,0.0396811l5.11811e-005 8.66142e-005 -0.00620079 0.0038937c-0.0107598,0.00699606 -0.0198465,0.0173386 -0.0262677,0.0298937 -0.00644882,0.0126142 -0.0101417,0.027685 -0.0101417,0.044189 0,0.0228228 0.00736614,0.0433031 0.0194528,0.0584567 0.0109843,0.0137677 0.0258031,0.0229488 0.0420236,0.0247717l0.0322165 0.00361811 0.00961417 0.0308543c0.0227047,0.072874 0.0514094,0.157961 0.0896772,0.236587 0.0367756,0.0755669 0.0820866,0.144756 0.138693,0.189441 0.0182205,0.0143898 0.0384409,0.0229488 0.0606811,0.0279803 0.0242992,0.0055 0.052437,0.00693307 0.0834961,0.00693307 0.0304331,0 0.0582047,-0.00131496 0.0826378,-0.00666142 0.0217323,-0.00475591 0.0415866,-0.0129685 0.0596102,-0.0269724 0.0573543,-0.0445551 0.103031,-0.113756 0.139965,-0.189366 0.0386063,-0.0790315 0.0675079,-0.164665 0.0903386,-0.237941l0.00961417 -0.0308543 0.0322165 -0.00361811c0.0162205,-0.00182283 0.0310394,-0.0110039 0.0420236,-0.0247756 0.0120906,-0.0151535 0.0194528,-0.0356339 0.0194528,-0.0584528 0,-0.0197441 -0.00540551,-0.0376102 -0.0145512,-0.0517441 -0.00877559,-0.0135551 -0.0208386,-0.0237126 -0.0345394,-0.0285827l-0.027374 -0.00972835 -0.00496457 -0.0284213c-0.00388976,-0.022252 -0.00612992,-0.0262795 -0.0125,-0.0377244 -0.00184252,-0.00331496 -0.00394882,-0.00709449 -0.00770079,-0.0141378l0.0871496 -0.0464803z"/>
  <path class="fil0" d="M1.46822 2.34266l0.000271654 -0.000511811c0.0386378,-0.0734055 0.108421,-0.108031 0.177941,-0.120969 0.0653543,-0.0121614 0.131843,-0.00445276 0.168484,0.0076063 0.00608268,0.002 0.0118268,0.00429921 0.0171181,0.00682677 0.0164055,0.00501969 0.0236063,0.00721654 0.0261969,0.008l3.93701e-006 -1.1811e-005c-0.00252756,-0.000783465 -0.0075,-0.00231102 3.93701e-006,-7.87402e-006 0.165421,0.0507756 0.276063,0.0847283 0.335193,0.058563 -0.0540276,-0.0961181 -0.130429,-0.170331 -0.219417,-0.216457 -0.0976142,-0.0506063 -0.210799,-0.0674291 -0.326409,-0.0422165 -0.00733858,0.00159843 0.00265748,0.00276772 -0.00327165,0.00829921 -0.0290787,0.0271378 -0.0705551,0.0658465 -0.127087,0.0658465l-0.000389764 -0.000192913c-0.0331417,-0.000314961 -0.0517598,-0.0142835 -0.0716772,-0.0292283 -0.00990157,-0.00742913 -0.0206969,-0.0155276 -0.0363189,-0.0132559 -0.0480669,0.0192441 -0.0838189,0.0619882 -0.111173,0.111567 -0.0259331,0.0470039 -0.0443976,0.0999843 -0.0587362,0.146902 0.0305669,0.0202087 0.0914843,0.0164331 0.154197,0.0125472 0.0249213,-0.00154331 0.0500748,-0.00310236 0.0750709,-0.00330709zm0.0878031 0.0455787c-0.0030748,0.00584252 -0.00587795,0.0125039 -0.0083622,0.0200472l-0.0118465 0.0359882 -0.0379252 -0.00209843c-0.0304606,-0.00168504 -0.0649252,0.000452756 -0.0989291,0.00255906 -0.103638,0.0064252 -0.203783,0.0126339 -0.257142,-0.0725394l-0.0117717 -0.0187913 0.00615354 -0.0211024c0.0169331,-0.0580472 0.0394449,-0.129476 0.0747283,-0.193425 0.038189,-0.0692205 0.0909882,-0.129638 0.167028,-0.157874l0.00658268 -0.00193701c0.0614567,-0.0137205 0.0920118,0.00920472 0.119906,0.0301299 0.00579528,0.00434646 0.0112559,0.00844488 0.0128031,0.00930709l0 -3.14961e-005c0.0177756,0 0.0424173,-0.0229961 0.0596929,-0.0391181 0.0170787,-0.015937 0.0305472,-0.0285079 0.049748,-0.0326969 0.13876,-0.0302638 0.274925,-0.00990551 0.392646,0.051122 0.118299,0.0613228 0.217551,0.163713 0.281469,0.296929l0.0140669 0.0293189 -0.0214252 0.0245197c-0.0909921,0.104122 -0.232815,0.0605906 -0.464256,-0.0104488 -0.0368346,-0.0113071 0.00886614,0.00262992 -0.0303386,-0.0093622l-0.0087126 -0.00348425c-0.001,-0.000527559 -0.00308268,-0.00131496 -0.00620472,-0.00234252 -0.025189,-0.00829134 -0.0720433,-0.013378 -0.119685,-0.00451181 -0.0434764,0.00809055 -0.0863661,0.028315 -0.108224,0.0698425zm0.302209 -0.144626c0.00194882,0.000594488 0.00129134,0.000385827 3.93701e-006,-1.1811e-005l-3.93701e-006 1.1811e-005z"/>
  <path class="fil0" d="M4.67859 3.23371l0.432551 0.557969 0.381299 -0.567028c0.00974016,-0.00129921 0.0179803,-0.00256693 0.0255354,-0.00373228 0.0388346,-0.00598031 0.0527402,-0.00811811 0.0957244,0.0292638 0.0813898,0.0707795 0.147531,0.158614 0.192819,0.257933 0.0434488,0.0952717 0.0676575,0.201472 0.0676575,0.313689l0 0.172295c-0.104307,0.0843622 -0.222606,0.151941 -0.35078,0.19861 -0.130504,0.0475118 -0.271642,0.0734449 -0.419114,0.0734449l0 0.000192913c-0.124441,-7.87402e-006 -0.244583,-0.0185945 -0.357827,-0.053126 0.00765748,0.0355709 0.0139449,0.0716339 0.018811,0.108126 0.108134,0.0285472 0.221752,0.0437638 0.339016,0.0437677l0 0.000192913c0.158783,0 0.311295,-0.028122 0.452811,-0.0796457 0.146795,-0.0534409 0.281346,-0.131976 0.398421,-0.230335l0.017815 -0.0149685 0 -0.0229882 0 -0.195567c0,-0.12624 -0.0275354,-0.246374 -0.0769528,-0.354748 -0.0512126,-0.112307 -0.125992,-0.211614 -0.217996,-0.29163 -0.0776339,-0.0675118 -0.103335,-0.0635551 -0.175126,-0.0525 -0.0152323,0.00235039 -0.0330866,0.00509843 -0.0508976,0.00685433l-0.0301929 0.00298031 -0.0110551 0.0283937 -0.306138 0.435972 -0.348063 -0.430449 -0.0119409 -0.0267835 -0.0291142 -0.00246063c-0.00380315,-0.000318898 -0.00611024,-0.000531496 -0.0152677,-0.00132283l-0.000192913 0c-0.0593465,-0.00511417 -0.0895236,-0.00772047 -0.123843,0.00592126 -0.0343858,0.0136654 -0.0572323,0.0380394 -0.103685,0.0876063l-0.00588976 0.00627559c-0.0637087,0.067937 -0.116461,0.14613 -0.155425,0.231764 0.026374,0.0235236 0.0518504,0.0480354 0.0763661,0.0734764 0.035437,-0.0887677 0.0870315,-0.169142 0.151102,-0.237457l0.00588583 -0.00627953c0.0365906,-0.0390394 0.0545866,-0.0582362 0.0680512,-0.0635906 0.0106772,-0.00424016 0.0299016,-0.0031378 0.0656339,-0.00011811z"/>
  <path class="fil0" d="M5.55417 2.32281c0.00184252,0.00346063 0.00455512,0.00833465 0.0069252,0.0125906 0.00916142,0.0164685 0.0140197,0.0252008 0.0185276,0.0432205 0.0228661,0.0134055 0.0424882,0.0324449 0.0573661,0.0554252 0.019374,0.029937 0.0308189,0.0664724 0.0308189,0.105583 0,0.0458583 -0.0155748,0.0879882 -0.0411457,0.120039 -0.0198661,0.0249016 -0.0457677,0.0438189 -0.075315,0.0540315 -0.0226654,0.0708425 -0.0507874,0.150291 -0.0872559,0.224949 -0.0428386,0.0877008 -0.0972953,0.16911 -0.16824,0.224228 -0.0307874,0.0239173 -0.0638386,0.0377559 -0.0995079,0.0455591 -0.0329685,0.00721654 -0.067122,0.00898819 -0.103547,0.00898819 -0.0367677,0 -0.0713819,-0.00199213 -0.105189,-0.00964173 -0.0358661,-0.00811417 -0.0691299,-0.022437 -0.100189,-0.0469606 -0.0703583,-0.0555433 -0.124248,-0.136551 -0.166583,-0.223528 -0.0361535,-0.0742874 -0.0640669,-0.153197 -0.0865945,-0.223594 -0.0295433,-0.0102126 -0.0554488,-0.029126 -0.075315,-0.0540276 -0.0255669,-0.0320551 -0.0411417,-0.074185 -0.0411417,-0.120043 0,-0.032063 0.00778346,-0.0625315 0.021374,-0.0891181 0.0143386,-0.0280394 0.0352087,-0.0515079 0.0603543,-0.0678504 0.00232283,-0.00150787 0.0044252,-0.00282677 0.00736614,-0.00466929l0.000188976 0c0.0121614,-0.00762205 0.0372441,-0.0233386 0.0528031,-0.0351181l0.0596457 0.0790118c-0.0157992,0.0119646 -0.0455,0.0305827 -0.0600197,0.0396811l5.51181e-005 8.66142e-005 -0.00620079 0.0038937c-0.0107638,0.00699606 -0.0198504,0.0173386 -0.0262717,0.0298937 -0.00644488,0.0126142 -0.0101417,0.027685 -0.0101417,0.044189 0,0.0228228 0.00736614,0.0433031 0.0194567,0.0584567 0.0109843,0.0137677 0.0257992,0.0229488 0.0420197,0.0247717l0.0322165 0.00361811 0.00961417 0.0308543c0.0227087,0.072874 0.0514134,0.157961 0.0896772,0.236587 0.0367795,0.0755669 0.0820866,0.144756 0.138693,0.189441 0.0182205,0.0143898 0.0384449,0.0229488 0.0606811,0.0279803 0.0243031,0.0055 0.052437,0.00693307 0.0835,0.00693307 0.0304331,0 0.0582047,-0.00131496 0.0826339,-0.00666142 0.0217323,-0.00475591 0.0415906,-0.0129685 0.0596142,-0.0269724 0.0573504,-0.0445551 0.103028,-0.113756 0.139965,-0.189366 0.0386063,-0.0790315 0.0675039,-0.164665 0.0903346,-0.237941l0.00961417 -0.0308543 0.0322165 -0.00361811c0.0162205,-0.00182283 0.0310394,-0.0110039 0.0420236,-0.0247756 0.0120906,-0.0151535 0.0194567,-0.0356339 0.0194567,-0.0584528 0,-0.0197441 -0.00540551,-0.0376102 -0.0145512,-0.0517441 -0.00877559,-0.0135551 -0.0208386,-0.0237126 -0.0345433,-0.0285827l-0.0273701 -0.00972835 -0.0049685 -0.0284213c-0.00388976,-0.022252 -0.00612992,-0.0262795 -0.0125,-0.0377244 -0.00184252,-0.00331496 -0.00394882,-0.00709449 -0.00770079,-0.0141378l0.0871496 -0.0464803z"/>
  <path class="fil0" d="M4.84997 2.34266l0.000267717 -0.000511811c0.0386417,-0.0734055 0.108421,-0.108031 0.177941,-0.120969 0.0653543,-0.0121614 0.131843,-0.00445276 0.168488,0.0076063 0.00607874,0.002 0.0118268,0.00429921 0.0171142,0.00682677 0.0164094,0.00501969 0.0236063,0.00721654 0.0261969,0.008l7.87402e-006 -1.1811e-005c-0.0025315,-0.000783465 -0.00750394,-0.00231102 0,-7.87402e-006 0.165425,0.0507756 0.276063,0.0847283 0.335193,0.058563 -0.0540276,-0.0961181 -0.130429,-0.170331 -0.219413,-0.216457 -0.0976181,-0.0506063 -0.210803,-0.0674291 -0.326413,-0.0422165 -0.00733858,0.00159843 0.00266142,0.00276772 -0.00326772,0.00829921 -0.0290827,0.0271378 -0.0705591,0.0658465 -0.127091,0.0658465l-0.000385827 -0.000192913c-0.0331457,-0.000314961 -0.0517598,-0.0142835 -0.0716811,-0.0292283 -0.00990157,-0.00742913 -0.0206969,-0.0155276 -0.0363189,-0.0132559 -0.0480669,0.0192441 -0.0838189,0.0619882 -0.111169,0.111567 -0.025937,0.0470039 -0.0444016,0.0999843 -0.0587402,0.146902 0.0305709,0.0202087 0.0914882,0.0164331 0.154197,0.0125472 0.0249252,-0.00154331 0.0500787,-0.00310236 0.0750748,-0.00330709zm0.0877992 0.0455787c-0.0030748,0.00584252 -0.00587795,0.0125039 -0.00835827,0.0200472l-0.0118465 0.0359882 -0.0379252 -0.00209843c-0.0304646,-0.00168504 -0.0649291,0.000452756 -0.0989331,0.00255906 -0.103638,0.0064252 -0.203783,0.0126339 -0.257142,-0.0725394l-0.0117717 -0.0187913 0.00615354 -0.0211024c0.0169331,-0.0580472 0.0394449,-0.129476 0.0747283,-0.193425 0.0381929,-0.0692205 0.0909882,-0.129638 0.167028,-0.157874l0.00658661 -0.00193701c0.0614567,-0.0137205 0.0920118,0.00920472 0.119902,0.0301299 0.00579528,0.00434646 0.0112598,0.00844488 0.0128031,0.00930709l0 -3.14961e-005c0.0177756,0 0.0424173,-0.0229961 0.0596969,-0.0391181 0.0170787,-0.015937 0.0305472,-0.0285079 0.049748,-0.0326969 0.138756,-0.0302638 0.274925,-0.00990551 0.392646,0.051122 0.118295,0.0613228 0.217551,0.163713 0.281469,0.296929l0.014063 0.0293189 -0.0214252 0.0245197c-0.0909921,0.104122 -0.232815,0.0605906 -0.464256,-0.0104488 -0.0368346,-0.0113071 0.00886614,0.00262992 -0.0303386,-0.0093622l-0.0087126 -0.00348425c-0.001,-0.000527559 -0.00308268,-0.00131496 -0.00620472,-0.00234252 -0.025189,-0.00829134 -0.0720394,-0.013378 -0.119685,-0.00451181 -0.0434764,0.00809055 -0.0863622,0.028315 -0.108224,0.0698425zm0.302209 -0.144626c0.00194882,0.000594488 0.00129134,0.000385827 7.87402e-006,-1.1811e-005l-7.87402e-006 1.1811e-005z"/>
  <path class="fil0" d="M2.7254 3.52747c0.0181181,-0.0319291 0.0069252,-0.0725079 -0.0250039,-0.090626 -0.0319291,-0.0181181 -0.0725079,-0.0069252 -0.090626,0.0250039 -0.156083,0.274642 -0.110465,0.422417 -0.0604213,0.584524 0.0225197,0.0729567 0.0460945,0.149323 0.0460945,0.243846 0,0.0368189 0.0298504,0.0666693 0.0666693,0.0666693 0.0368189,0 0.0666693,-0.0298504 0.0666693,-0.0666693 0,-0.113339 -0.0267756,-0.200059 -0.0523465,-0.282909 -0.0411969,-0.133453 -0.078752,-0.25511 0.0489646,-0.479839z"/>
  <rect class="fil1" width="6.82666" height="6.82666"/>
  <path class="fil2" d="M3.58648 1.94276c0.268665,0.0824646 0.44835,0.137606 0.544386,0.0951102 -0.0877441,-0.156106 -0.211831,-0.27663 -0.35635,-0.351547 -0.158543,-0.082189 -0.342362,-0.109508 -0.530126,-0.068563 -0.0119173,0.00259843 0.0043189,0.00449606 -0.00531102,0.0134803 -0.0472323,0.0440748 -0.114591,0.106941 -0.206406,0.106941l-0.000629921 -0.000314961c-0.0538268,-0.000507874 -0.084063,-0.0231969 -0.116409,-0.0474646 -0.0160827,-0.0120709 -0.0336181,-0.0252205 -0.0589882,-0.0215315 -0.0780669,0.031252 -0.13613,0.100677 -0.180555,0.181197 -0.0421181,0.0763346 -0.0721063,0.162382 -0.0953937,0.238579 0.0149843,0.00990551 0.0344606,0.0162638 0.0571496,0.0201417 0.00224409,-0.00163386 0.00440157,-0.00323228 0.00646063,-0.00479134l0.00490157 0.00649606c0.0509646,0.00664961 0.115831,0.00262992 0.181917,-0.00146457 0.0404803,-0.00251181 0.0813307,-0.00503937 0.121925,-0.00537402l0.000437008 -0.000830709c0.0627559,-0.119217 0.176091,-0.175453 0.288996,-0.196465 0.106142,-0.019748 0.214126,-0.00722835 0.273638,0.0123543 0.00987795,0.00324803 0.0192087,0.00698031 0.0277992,0.0110906l0.0425591 0.0129567zm-3.93701e-006 1.1811e-005c-0.0041063,-0.00127165 -0.012185,-0.00375591 0,0z"/>
  <path class="fil3" d="M3.80576 3.00115c0.0627008,-0.128358 0.109638,-0.267429 0.14672,-0.386441l0.0156142 -0.0501102 0.0523228 -0.00587402c0.0263425,-0.00295669 0.0504055,-0.0178701 0.068248,-0.0402323 0.0196339,-0.0246142 0.0315945,-0.057874 0.0315945,-0.094937 0,-0.0320669 -0.00877559,-0.0610866 -0.0236299,-0.0840354 -0.0142559,-0.0220157 -0.0338465,-0.0385157 -0.0560984,-0.0464252l-0.0444567 -0.0157992 -0.00806693 -0.0461614c-0.00152362,-0.0087126 -0.00288976,-0.0157008 -0.00423228,-0.0215551 -0.119732,-0.0136496 -0.26563,-0.0584331 -0.44448,-0.113331 -0.0598228,-0.0183661 0.0144016,0.00427165 -0.0492677,-0.0152047l-0.0141535 -0.00566142c-0.00162205,-0.000854331 -0.00500787,-0.0021378 -0.0100787,-0.00380315 -0.0409094,-0.0134646 -0.117,-0.0217244 -0.194378,-0.00732677 -0.0706102,0.0131378 -0.140264,0.0459882 -0.175768,0.113429 -0.00499606,0.00949213 -0.00954724,0.020311 -0.0135787,0.0325591l-0.0192362 0.0584488 -0.0615984 -0.00340945c-0.0494724,-0.00273622 -0.105445,0.00073622 -0.160673,0.00416142 -0.0552441,0.0034252 -0.109874,0.00681102 -0.161409,0.0049252 -0.0136732,0.00875984 -0.0263858,0.0167283 -0.0354528,0.0224094l9.05512e-005 0.000137795 -0.0100709 0.00632283c-0.0174803,0.0113622 -0.0322362,0.0281575 -0.0426654,0.0485551 -0.0104685,0.0204803 -0.0164685,0.0449606 -0.0164685,0.0717638 0,0.037063 0.0119606,0.0703268 0.0315906,0.094937 0.0178425,0.0223622 0.0419094,0.0372756 0.068252,0.0402323l0.0523228 0.00587402 0.0156142 0.0501102c0.036878,0.118354 0.0834961,0.256547 0.145642,0.38424 0.0597323,0.122728 0.133315,0.235098 0.225252,0.307673 0.0295945,0.0233701 0.062437,0.0372717 0.0985512,0.0454449 0.0394685,0.00892913 0.0851614,0.0112559 0.13561,0.0112559 0.0494252,0 0.0945276,-0.00213386 0.134209,-0.0108189 0.0352953,-0.00772047 0.0675433,-0.0210591 0.096815,-0.0437992 0.0931496,-0.0723622 0.167331,-0.184756 0.227315,-0.307555z"/>
  <path class="fil3" d="M1.99326 2.89527c0.0386063,-0.0790315 0.0675079,-0.164665 0.0903386,-0.237941l0.00961417 -0.0308543 0.0322165 -0.00361811c0.0162205,-0.00182283 0.0310394,-0.0110039 0.0420236,-0.0247756 0.0120906,-0.0151535 0.0194528,-0.0356339 0.0194528,-0.0584528 0,-0.0197441 -0.00540551,-0.0376102 -0.0145512,-0.0517441 -0.00877559,-0.0135551 -0.0208386,-0.0237126 -0.0345394,-0.0285827l-0.027374 -0.00972835 -0.00496457 -0.0284213c-0.000937008,-0.00536614 -0.00177953,-0.00966929 -0.0026063,-0.0132756 -0.0737205,-0.00840551 -0.163555,-0.0359764 -0.273677,-0.0697795 -0.0368346,-0.0113071 0.00886614,0.00262992 -0.0303386,-0.0093622l-0.0087126 -0.00348425c-0.001,-0.000527559 -0.00308268,-0.00131496 -0.00620472,-0.00234252 -0.025189,-0.00829134 -0.0720433,-0.013378 -0.119685,-0.00451181 -0.0434764,0.00809055 -0.0863661,0.028315 -0.108224,0.0698425 -0.0030748,0.00584252 -0.00587795,0.0125039 -0.0083622,0.0200472l-0.0118465 0.0359882 -0.0379252 -0.00209843c-0.0304606,-0.00168504 -0.0649252,0.000452756 -0.0989291,0.00255906 -0.0340157,0.00211024 -0.0676535,0.00419291 -0.0993858,0.0030315 -0.00841732,0.0053937 -0.0162441,0.0102992 -0.0218268,0.0137992l5.11811e-005 8.66142e-005 -0.00620079 0.0038937c-0.0107598,0.00699606 -0.0198465,0.0173386 -0.0262677,0.0298937 -0.00644882,0.0126142 -0.0101417,0.027685 -0.0101417,0.044189 0,0.0228228 0.00736614,0.0433031 0.0194528,0.0584567 0.0109843,0.0137677 0.0258031,0.0229488 0.0420236,0.0247717l0.0322165 0.00361811 0.00961417 0.0308543c0.0227047,0.072874 0.0514094,0.157961 0.0896772,0.236587 0.0367756,0.0755669 0.0820866,0.144756 0.138693,0.189441 0.0182205,0.0143898 0.0384409,0.0229488 0.0606811,0.0279803 0.0242992,0.0055 0.052437,0.00693307 0.0834961,0.00693307 0.0304331,0 0.0582047,-0.00131496 0.0826378,-0.00666142 0.0217323,-0.00475591 0.0415866,-0.0129685 0.0596102,-0.0269724 0.0573543,-0.0445551 0.103031,-0.113756 0.139965,-0.189366z"/>
  <path class="fil2" d="M1.85824 2.24359c-0.00750394,-0.00230315 -0.0025315,-0.000775591 0,0zm-7.87402e-006 1.9685e-005l0 0zm0 0c0.00194882,0.000594488 0.00129134,0.000385827 0,0zm0.335201 0.0585433c-0.0540276,-0.0961181 -0.130429,-0.170331 -0.219417,-0.216457 -0.0976142,-0.0506063 -0.210799,-0.0674291 -0.326409,-0.0422165 -0.00733858,0.00159843 0.00265748,0.00276772 -0.00327165,0.00829921 -0.0290787,0.0271378 -0.0705551,0.0658465 -0.127087,0.0658465l-0.000389764 -0.000192913c-0.0331417,-0.000314961 -0.0517598,-0.0142835 -0.0716772,-0.0292283 -0.00990157,-0.00742913 -0.0206969,-0.0155276 -0.0363189,-0.0132559 -0.0480669,0.0192441 -0.0838189,0.0619882 -0.111173,0.111567 -0.0259331,0.0470039 -0.0443976,0.0999843 -0.0587362,0.146902 0.00922835,0.00609843 0.0212165,0.0100157 0.035189,0.0124016 0.00138189,-0.00100394 0.00270866,-0.00198819 0.00397638,-0.00294882l0.00301575 0.00399606c0.0313819,0.00409449 0.0713189,0.00161811 0.112016,-0.000901575 0.0249213,-0.00154331 0.0500748,-0.00310236 0.0750709,-0.00330709l0.000271654 -0.000511811c0.0386378,-0.0734055 0.108421,-0.108031 0.177941,-0.120969 0.0653543,-0.0121614 0.131843,-0.00445276 0.168484,0.0076063 0.00608268,0.002 0.0118268,0.00429921 0.0171181,0.00682677l0.0262047 0.00798031c0.165421,0.0507756 0.276063,0.0847283 0.335193,0.058563z"/>
  <path class="fil4" d="M2.05147 3.99463c0.064937,-0.164169 0.160457,-0.313232 0.279559,-0.440232l0.00955906 -0.0101969c0.0263583,-0.028122 0.0480394,-0.051252 0.0674724,-0.0703898 -0.0442362,-0.0852874 -0.104224,-0.16111 -0.17611,-0.223626 -0.0429843,-0.0373819 -0.0568898,-0.0352441 -0.0957244,-0.0292638 -0.00755512,0.00116535 -0.0157953,0.00243307 -0.0255394,0.00373228l-0.381299 0.567028 -0.432551 -0.557969c-0.0357283,-0.00301969 -0.0549567,-0.00412205 -0.0656299,0.00011811 -0.0134646,0.00535433 -0.0314606,0.0245512 -0.0680512,0.0635906l-0.00588583 0.00627953c-0.0646063,0.0688819 -0.116531,0.150035 -0.151992,0.239685 -0.034063,0.086122 -0.0527913,0.180047 -0.0527913,0.278421l-0.000192913 0 7.87402e-006 0.17215c0.104421,0.0844409 0.222795,0.152075 0.351067,0.198768 0.130843,0.047622 0.271992,0.0736181 0.419161,0.073626l0 -0.000192913c0.0884134,0 0.174547,-0.00932677 0.257484,-0.0270315 0.0164213,-0.0844606 0.0404921,-0.166209 0.0714567,-0.244496z"/>
  <path class="fil4" d="M3.37721 4.457l-0.67972 -0.876803c-0.093689,0.191819 -0.0589094,0.304484 -0.0210551,0.42711 0.0248071,0.080378 0.050748,0.164398 0.0522756,0.272831 0.0214528,0.01 0.0408504,0.0236772 0.0573858,0.0402126 0.0364331,0.0364252 0.0589685,0.086752 0.0589685,0.142327 0,0.0555787 -0.0225354,0.105902 -0.0589685,0.142331 -0.0364252,0.0364291 -0.0867559,0.0589646 -0.142331,0.0589646 -0.0555709,0 -0.105894,-0.0225354 -0.142323,-0.0589646 -0.0364291,-0.0364291 -0.0589646,-0.0867559 -0.0589646,-0.142331 0,-0.0555748 0.0225354,-0.105902 0.0589646,-0.142327 0.0253976,-0.0254055 0.0575551,-0.0440512 0.0935394,-0.0530118 -0.00339764,-0.0841378 -0.0249606,-0.153988 -0.0456339,-0.220969 -0.0441772,-0.143102 -0.0849055,-0.275035 0.0135236,-0.492929 -0.0213543,0.0112953 -0.0504724,0.0423583 -0.10528,0.100835l-0.00956299 0.0101969c-0.104921,0.111878 -0.189256,0.243677 -0.246846,0.389276 -0.0553228,0.13987 -0.0857362,0.292417 -0.0857362,0.452189l-0.000314961 0 1.5748e-005 0.279579c0.169587,0.137146 0.361835,0.246988 0.570161,0.322819 0.2125,0.0773504 0.441744,0.119567 0.68076,0.119579l0 -0.000314961c0.239512,0 0.46874,-0.0421142 0.680689,-0.119283 0.208169,-0.0757913 0.400291,-0.185547 0.569697,-0.322559l0 -0.279819c0,-0.182252 -0.039315,-0.354736 -0.109882,-0.509472 -0.0675748,-0.148193 -0.163736,-0.280642 -0.281429,-0.390339 0.00576772,0.0745079 0.0124646,0.160197 0.0167992,0.215567 0.00557874,0.00157087 0.0110748,0.00331496 0.0164724,0.00523228 0.0797677,0.0283031 0.142382,0.0915276 0.145591,0.188303 0.00374016,0.112539 0.0737756,0.359063 0.102709,0.460902 0.00898425,0.0316181 0.0146929,0.0517323 0.0154843,0.0621063 0.00474409,0.0620591 0.00773622,0.140209 -0.0187244,0.207677 -0.0327835,0.0836063 -0.0999449,0.142945 -0.233378,0.132299 -0.0442953,-0.00347244 -0.0773858,-0.0422008 -0.0739134,-0.0864961 0.00347638,-0.0442953 0.0422008,-0.0773858 0.0864961,-0.0739134 0.0434921,0.0034685 0.063252,-0.0104173 0.0710827,-0.0303937 0.0141614,-0.0361024 0.0114921,-0.0919213 0.00802756,-0.13722 -0.000405512,-0.00532677 -0.00356299,-0.00862992 -0.0098189,-0.0306535 -0.0303858,-0.106953 -0.103941,-0.365862 -0.108374,-0.499272 -0.00065748,-0.0198465 -0.0173189,-0.0341693 -0.0386535,-0.0417402 -0.0131772,-0.00467717 -0.0273228,-0.00705906 -0.0412126,-0.00707874 -0.0139685,-2.75591e-005 -0.0277638,0.00219291 -0.0401417,0.0067126 -0.019252,0.0070315 -0.0340787,0.0213701 -0.034685,0.0430984 -0.00378346,0.134933 -0.0780354,0.393661 -0.108437,0.499606 -0.00618504,0.021563 -0.00920866,0.0233819 -0.00966142,0.0293268 -0.0034685,0.0453031 -0.0061378,0.101118 0.00801969,0.13722 0.00783465,0.0199764 0.0275945,0.0338622 0.0710906,0.0303937 0.0442992,-0.00347244 0.0830236,0.0296181 0.0865,0.0739134 0.00347244,0.0442953 -0.0296181,0.0830236 -0.0739134,0.0864961 -0.133433,0.0106457 -0.200598,-0.0486929 -0.23339,-0.132299 -0.0264606,-0.0674685 -0.0234685,-0.145622 -0.0187165,-0.207677 0.000834646,-0.0109331 0.00646063,-0.0305 0.0153268,-0.0614055 0.028937,-0.100835 0.0996063,-0.347087 0.102772,-0.459976 0.00277559,-0.0988386 0.0627008,-0.161307 0.140366,-0.189665 0.0038937,-0.00142126 0.00783465,-0.00274803 0.0118189,-0.00398031 -0.0063189,-0.0809843 -0.016685,-0.21435 -0.0228307,-0.296134 -0.00620079,0.000850394 -0.0127913,0.00186614 -0.0198976,0.00296063 -0.0122677,0.00188976 -0.0256496,0.00395276 -0.0414724,0.00606299l-0.619268 0.920902z"/>
  <path class="fil5" d="M2.68403 4.46268c0,-0.011122 -0.00450787,-0.0211929 -0.0117874,-0.0284685 -0.00727953,-0.00728346 -0.0173465,-0.0117874 -0.0284724,-0.0117874 -0.0111181,0 -0.021189,0.00450394 -0.0284646,0.0117874 -0.00727953,0.00727559 -0.0117835,0.0173465 -0.0117835,0.0284685 0,0.011122 0.00450394,0.0211929 0.0117835,0.0284724 0.00727953,0.00727953 0.0173465,0.0117835 0.0284646,0.0117835 0.011126,0 0.0211929,-0.00450394 0.0284724,-0.0117835 0.00727953,-0.00727953 0.0117874,-0.0173543 0.0117874,-0.0284724z"/>
  <path class="fil4" d="M5.52339 4.19271c0.128173,-0.0466693 0.246472,-0.114248 0.35078,-0.19861l0 -0.172295c0,-0.112217 -0.0242087,-0.218417 -0.0676575,-0.313689 -0.0452874,-0.0993189 -0.111429,-0.187154 -0.192819,-0.257933 -0.0429843,-0.0373819 -0.0568898,-0.0352441 -0.0957244,-0.0292638 -0.00755512,0.00116535 -0.0157953,0.00243307 -0.0255354,0.00373228l-0.381299 0.567028 -0.432551 -0.557969c-0.0357323,-0.00301969 -0.0549567,-0.00412205 -0.0656339,0.00011811 -0.0134646,0.00535433 -0.0314606,0.0245512 -0.0680512,0.0635906l-0.00588583 0.00627953c-0.0640709,0.068315 -0.115665,0.148689 -0.151102,0.237457 0.108807,0.112909 0.198713,0.24415 0.264598,0.388638 0.0409961,0.0898976 0.0727205,0.184783 0.0939409,0.283429 0.113244,0.0345315 0.233386,0.0531181 0.357827,0.053126l0 -0.000192913c0.147472,0 0.28861,-0.0259331 0.419114,-0.0734449z"/>
  <path class="fil3" d="M5.23504 3.08463c0.0573504,-0.0445551 0.103028,-0.113756 0.139965,-0.189366 0.0386063,-0.0790315 0.0675039,-0.164665 0.0903346,-0.237941l0.00961417 -0.0308543 0.0322165 -0.00361811c0.0162205,-0.00182283 0.0310394,-0.0110039 0.0420236,-0.0247756 0.0120906,-0.0151535 0.0194567,-0.0356339 0.0194567,-0.0584528 0,-0.0197441 -0.00540551,-0.0376102 -0.0145512,-0.0517441 -0.00877559,-0.0135551 -0.0208386,-0.0237126 -0.0345433,-0.0285827l-0.0273701 -0.00972835 -0.0049685 -0.0284213c-0.000937008,-0.00536614 -0.00177953,-0.00966929 -0.0026063,-0.0132756 -0.0737205,-0.00840551 -0.163555,-0.0359764 -0.273677,-0.0697795 -0.0368346,-0.0113071 0.00886614,0.00262992 -0.0303386,-0.0093622l-0.0087126 -0.00348425c-0.001,-0.000527559 -0.00308268,-0.00131496 -0.00620472,-0.00234252 -0.025189,-0.00829134 -0.0720394,-0.013378 -0.119685,-0.00451181 -0.0434764,0.00809055 -0.0863622,0.028315 -0.108224,0.0698425 -0.0030748,0.00584252 -0.00587795,0.0125039 -0.00835827,0.0200472l-0.0118465 0.0359882 -0.0379252 -0.00209843c-0.0304646,-0.00168504 -0.0649291,0.000452756 -0.0989331,0.00255906 -0.0340157,0.00211024 -0.0676535,0.00419291 -0.0993858,0.0030315 -0.00841732,0.0053937 -0.0162441,0.0102992 -0.0218268,0.0137992l5.51181e-005 8.66142e-005 -0.00620079 0.0038937c-0.0107638,0.00699606 -0.0198504,0.0173386 -0.0262717,0.0298937 -0.00644488,0.0126142 -0.0101417,0.027685 -0.0101417,0.044189 0,0.0228228 0.00736614,0.0433031 0.0194567,0.0584567 0.0109843,0.0137677 0.0257992,0.0229488 0.0420197,0.0247717l0.0322165 0.00361811 0.00961417 0.0308543c0.0227087,0.072874 0.0514134,0.157961 0.0896772,0.236587 0.0367795,0.0755669 0.0820866,0.144756 0.138693,0.189441 0.0182205,0.0143898 0.0384449,0.0229488 0.0606811,0.0279803 0.0243031,0.0055 0.052437,0.00693307 0.0835,0.00693307 0.0304331,0 0.0582047,-0.00131496 0.0826339,-0.00666142 0.0217323,-0.00475591 0.0415906,-0.0129685 0.0596142,-0.0269724z"/>
  <path class="fil2" d="M5.23998 2.24359c0.165425,0.0507756 0.276063,0.0847283 0.335193,0.058563 -0.0540276,-0.0961181 -0.130429,-0.170331 -0.219413,-0.216457 -0.0976181,-0.0506063 -0.210803,-0.0674291 -0.326413,-0.0422165 -0.00733858,0.00159843 0.00266142,0.00276772 -0.00326772,0.00829921 -0.0290827,0.0271378 -0.0705591,0.0658465 -0.127091,0.0658465l-0.000385827 -0.000192913c-0.0331457,-0.000314961 -0.0517598,-0.0142835 -0.0716811,-0.0292283 -0.00990157,-0.00742913 -0.0206969,-0.0155276 -0.0363189,-0.0132559 -0.0480669,0.0192441 -0.0838189,0.0619882 -0.111169,0.111567 -0.025937,0.0470039 -0.0444016,0.0999843 -0.0587402,0.146902 0.00922835,0.00609843 0.0212205,0.0100157 0.0351929,0.0124016 0.00138189,-0.00100394 0.00270866,-0.00198819 0.00397638,-0.00294882l0.00301575 0.00399606c0.0313819,0.00409449 0.0713189,0.00161811 0.112012,-0.000901575 0.0249252,-0.00154331 0.0500787,-0.00310236 0.0750748,-0.00330709l0.000267717 -0.000511811c0.0386417,-0.0734055 0.108421,-0.108031 0.177941,-0.120969 0.0653543,-0.0121614 0.131843,-0.00445276 0.168488,0.0076063 0.00607874,0.002 0.0118268,0.00429921 0.0171142,0.00682677l0.0262047 0.00798031zm0 0c-0.00750394,-0.00230315 -0.0025315,-0.000775591 0,0z"/>
 </g>
</svg>
