<svg width="100" height="100" version="1.1" id="Layer_1" xmlns="http://www.w3.org/2000/svg"  x="0px" y="0px"
	 viewBox="0 0 64 64" style="enable-background:new 0 0 64 64;" xml:space="preserve">
<style type="text/css">
	.st0{fill:#FFC300;}
	.st1{fill:#D1A000;}
	.st2{fill:#CFD8DC;}
	.st3{fill:#B0BEC5;}
	.st4{fill:#34444C;}
	.st5{fill:#F72250;}
	.st6{fill:#81D4FA;}
	.st7{fill:#33E0A6;}
	.st8{fill:#8FEECE;}
	.st9{fill:#FFD766;}
	.st10{fill:#1976D2;}
	.st11{fill:#1E88E5;}
	.st12{fill:#ECEFF1;}
	.st13{fill:#90A4AE;}
	.st14{fill:#B3E5FC;}
	.st15{fill:#4FC3F7;}
	.st16{fill:#1565C0;}
	.st17{fill:#29B6F6;}
	.st18{fill:#202B30;}
	.st19{fill:#6B777C;}
	.st20{fill:#FAFAFA;}
	.st21{fill:#FFFFFF;}
	.st22{fill:#26A379;}
	.st23{fill:#18664C;}
	.st24{fill:#B4193B;}
	.st25{fill:#F95E7F;}
	.st26{fill:#711025;}
	.st27{fill:#78909C;}
	.st28{fill:#039BE5;}
	.st29{fill:#1B2428;}
	.st30{fill:#13191C;}
	.st31{fill:#FDD835;}
</style>
<g id="Doctor">
	<g>
		<path class="st6" d="M43,62H7V42c0-5.5,4.5-10,10-10h16c5.5,0,10,4.5,10,10V62z"/>
		<path class="st14" d="M20,32h-3c-5.5,0-10,4.5-10,10v20h3V42C10,36.5,14.5,32,20,32z"/>
		<path class="st15" d="M30,32h3c5.5,0,10,4.5,10,10v20h-3V42C40,36.5,35.5,32,30,32z"/>
		<rect x="13" y="43" class="st15" width="1" height="19"/>
		<rect x="36" y="43" class="st15" width="1" height="19"/>
		<path class="st0" d="M21,32L21,32l0-5h8v5l0,0C27.2,35,22.8,35,21,32z"/>
		<path class="st0" d="M27,29.5l-3.9,0c-5.5,0-10-4.4-10-10l0-3.9c0-5.5,4.4-10,10-10l3.9,0c5.5,0,10,4.4,10,10l0,3.9
			C37,25,32.5,29.5,27,29.5z"/>
		<path class="st1" d="M37,15.5c0-5.5-4.5-10-10-10l-2.8,0c5.4,0.1,9.8,4.5,9.8,10l0,3.9c0,5.5-4.4,10-10,10l-1.2,0
			c0.1,0,0.2,0,0.2,0l3.9,0c5.5,0,10-4.5,10-10L37,15.5z"/>
		
			<ellipse transform="matrix(1 -3.885496e-03 3.885496e-03 1 -6.660516e-02 7.807023e-02)" class="st4" cx="20.1" cy="17.2" rx="1.5" ry="1.5"/>
		
			<ellipse transform="matrix(1 -3.885496e-03 3.885496e-03 1 -6.637926e-02 0.1166)" class="st4" cx="30" cy="17.1" rx="1.5" ry="1.5"/>
		<g>
			<path class="st4" d="M25,24.7c-1,0-2-0.4-2.8-1.1c-0.2-0.2-0.2-0.5,0-0.7c0.2-0.2,0.5-0.2,0.7,0c0.5,0.5,1.3,0.8,2.1,0.8
				c0,0,0,0,0,0c0.8,0,1.5-0.3,2.1-0.9c0.2-0.2,0.5-0.2,0.7,0c0.2,0.2,0.2,0.5,0,0.7C27,24.3,26,24.7,25,24.7z"/>
		</g>
		<path class="st9" d="M16.1,19.5l0-3.9c0-5.5,4.4-10,10-10l1.2,0c-0.1,0-0.2,0-0.2,0l-3.9,0c-5.5,0-10,4.5-10,10l0,3.9
			c0,5.5,4.5,10,10,10l2.8,0C20.5,29.4,16.1,25,16.1,19.5z"/>
		<path class="st4" d="M38,14L38,14l0-4c0-3.3-2.7-6-6-6h0v4C32,11.3,34.7,14,38,14z"/>
		<path class="st4" d="M33.2,6.3C31,3.7,27.7,2,24,2c-6.1,0-11.2,4.6-11.9,10.6L12,14h4.8c4.7,0,9.2-1.6,12.8-4.6L33.2,6.3z"/>
		<path class="st19" d="M25.5,2.1C25,2,24.5,2,24,2c-6.1,0-11.2,4.6-11.9,10.6L12,14h3l0.1-1.4C15.8,7.1,20.1,2.8,25.5,2.1z"/>
		<polygon class="st12" points="17,32 15,37 18,37 17,40 23,47 19,32 		"/>
		<polygon class="st12" points="33,32 35,37 32,37 33,40 27,47 31,32 		"/>
		<path class="st22" d="M22.9,62V47L19,32l2,0l0,0c1.8,3,6.2,3,8,0l0,0l2,0l-4,15v15L22.9,62z"/>
		<g>
			<path class="st4" d="M20.1,21.7c-2.5,0-4.5-2-4.5-4.5s2-4.5,4.5-4.5s4.5,2,4.5,4.5S22.5,21.7,20.1,21.7z M20.1,13.7
				c-1.9,0-3.5,1.6-3.5,3.5s1.6,3.5,3.5,3.5s3.5-1.6,3.5-3.5S22,13.7,20.1,13.7z"/>
		</g>
		<g>
			<path class="st4" d="M30,21.7c-2.5,0-4.5-2-4.5-4.5s2-4.5,4.5-4.5s4.5,2,4.5,4.5S32.5,21.7,30,21.7z M30,13.7
				c-1.9,0-3.5,1.6-3.5,3.5s1.6,3.5,3.5,3.5s3.5-1.6,3.5-3.5S31.9,13.7,30,13.7z"/>
		</g>
		<g>
			<path class="st4" d="M16.1,16h-3c-0.3,0-0.5-0.2-0.5-0.5s0.2-0.5,0.5-0.5h3c0.3,0,0.5,0.2,0.5,0.5S16.3,16,16.1,16z"/>
		</g>
		<g>
			<path class="st4" d="M37,16h-3c-0.3,0-0.5-0.2-0.5-0.5S33.7,15,34,15h3c0.3,0,0.5,0.2,0.5,0.5S37.3,16,37,16z"/>
		</g>
		<g>
			<path class="st4" d="M25.1,37.5c-7.4,0-13.5-6.1-13.5-13.5v-5c0-0.3,0.2-0.5,0.5-0.5s0.5,0.2,0.5,0.5v5c0,6.9,5.6,12.5,12.5,12.5
				S37.6,30.9,37.6,24v-5c0-0.3,0.2-0.5,0.5-0.5s0.5,0.2,0.5,0.5v5C38.6,31.4,32.5,37.5,25.1,37.5z"/>
		</g>
		<path class="st19" d="M37.6,22h1c0.6,0,1-0.4,1-1v-3c0-0.6-0.4-1-1-1h-1c-0.6,0-1,0.4-1,1v3C36.6,21.5,37,22,37.6,22z"/>
		<path class="st19" d="M11.6,22h1c0.6,0,1-0.4,1-1v-3c0-0.6-0.4-1-1-1h-1c-0.6,0-1,0.4-1,1v3C10.6,21.5,11,22,11.6,22z"/>
		<g>
			<path class="st4" d="M49,52h-9.8c-8.3,0-15-6.7-15-15c0-0.3,0.2-0.5,0.5-0.5s0.5,0.2,0.5,0.5c0,7.7,6.3,14,14,14H49
				c0.3,0,0.5,0.2,0.5,0.5S49.3,52,49,52z"/>
		</g>
		<circle class="st4" cx="53" cy="51.5" r="4"/>
		<circle class="st19" cx="53" cy="51.5" r="2"/>
	</g>
</g>
</svg>
